<?xml version="1.0" encoding="utf-8"?>
<!-- Generator: Adobe Illustrator 25.4.1, SVG Export Plug-In . SVG Version: 6.00 Build 0)  -->
<svg version="1.0" id="Capa_1" xmlns="http://www.w3.org/2000/svg" xmlns:xlink="http://www.w3.org/1999/xlink" x="0px" y="0px"
	 viewBox="0 0 668 332" style="enable-background:new 0 0 668 332;" xml:space="preserve">
<style type="text/css">
	.st0{fill:none;}
	.st1{fill:#4A60A5;}
	.st2{fill:#FF4D4C;}
</style>
<g>
	<path class="st0" d="M374.04,276.02c21.89,24.3,59.47,26.25,83.76,4.36c17.96-16.19,23.7-40.94,16.63-62.57l-115.47,14.71
		C357.97,247.91,362.92,263.68,374.04,276.02z"/>
	<path class="st1" d="M65,13.94l156.49,205.73c13.03,17.13,34.21,26,55.55,23.29l61.54-7.84c0.33-21.35,9.17-42.52,26.24-57.91
		c32.6-29.37,83.01-26.75,112.38,5.85c8.58,9.52,14.41,20.57,17.58,32.16l38.67-4.93c21.35-2.72,39.62-16.62,47.94-36.47L654.25,0
		H57.08C59.06,4.91,61.71,9.61,65,13.94z"/>
	<path class="st1" d="M462.16,196.62c-21.89-24.3-59.47-26.25-83.76-4.36c-11.96,10.77-18.49,25.34-19.44,40.26l115.47-14.71
		C471.93,210.18,467.86,202.95,462.16,196.62z"/>
	<path class="st2" d="M494.79,215.21c-3.17-11.59-9-22.64-17.58-32.16c-29.37-32.6-79.78-35.22-112.38-5.85
		c-17.08,15.39-25.91,36.55-26.24,57.91c-0.3,19.4,6.41,38.95,20.4,54.47c29.37,32.6,79.78,35.22,112.38,5.85
		C494.44,274.64,502.47,243.31,494.79,215.21z M457.8,280.38c-24.3,21.89-61.87,19.94-83.76-4.36
		c-11.12-12.34-16.07-28.1-15.09-43.5c0.96-14.92,7.49-29.49,19.44-40.26c24.3-21.89,61.87-19.94,83.76,4.36
		c5.7,6.33,9.78,13.57,12.27,21.19C481.5,239.43,475.76,264.19,457.8,280.38z"/>
</g>
</svg>
