<?xml version="1.0" encoding="utf-8"?>
<!-- Generator: Adobe Illustrator 25.4.1, SVG Export Plug-In . SVG Version: 6.00 Build 0)  -->
<svg version="1.0" id="Capa_1" xmlns="http://www.w3.org/2000/svg" xmlns:xlink="http://www.w3.org/1999/xlink" x="0px" y="0px"
	 viewBox="0 0 593 363" style="enable-background:new 0 0 593 363;" xml:space="preserve">
<style type="text/css">
	.st0{fill:none;}
	.st1{fill:#EB544B;}
	.st2{fill:#FBC100;}
	.st3{fill:#D40168;}
</style>
<g>
	<path class="st0" d="M106.44,203.77C95.9,147.2,55.58,99.21,0,79.98v118.3l8.07-2.01C41.36,187.95,75.81,190.94,106.44,203.77z"/>
	<path class="st1" d="M106.44,203.77c14.62,6.12,28.37,14.47,40.7,24.93c-0.85-40.15-13.76-79.08-37.72-112.37
		C82.37,78.75,44.05,52.24,0,40.2v39.77C55.58,99.21,95.9,147.2,106.44,203.77z"/>
	<path class="st2" d="M572.18,363l11.69-45.72l-93.88-24c-83.07-21.24-167.06,1.66-227.19,53.99L278,363H572.18z"/>
	<path class="st3" d="M262.8,347.28L158.5,239.35c-3.63-3.76-7.42-7.31-11.36-10.64c-12.33-10.46-26.09-18.8-40.7-24.93
		c-30.63-12.83-65.08-15.82-98.37-7.51L0,198.28V363h44.35h55.13h146.83H278L262.8,347.28z"/>
</g>
</svg>
