<?xml version="1.0" encoding="utf-8"?>
<!-- Generator: Adobe Illustrator 25.4.1, SVG Export Plug-In . SVG Version: 6.00 Build 0)  -->
<svg version="1.0" id="Capa_1" xmlns="http://www.w3.org/2000/svg" xmlns:xlink="http://www.w3.org/1999/xlink" x="0px" y="0px"
	 viewBox="0 0 544 497" style="enable-background:new 0 0 544 497;" xml:space="preserve">
<style type="text/css">
	.st0{fill:none;}
	.st1{fill:#FBC100;}
	.st2{fill:#4A60A5;}
	.st3{fill:#FFC019;}
</style>
<g>
	<path class="st0" d="M245.81,359.8l-128.94,64.47c-18.56,9.28-32.4,25.24-38.96,44.92c-3.03,9.1-4.32,18.5-3.94,27.81h191.07
		c-15.56-27.44-24.45-59.16-24.45-92.96C240.58,388.8,242.4,373.99,245.81,359.8z"/>
	<path class="st1" d="M77.91,469.19c6.56-19.69,20.4-35.64,38.96-44.92l128.94-64.47c5.04-20.96,13.57-40.57,24.95-58.16
		L98.6,387.72c-28.32,14.16-49.44,38.51-59.45,68.55c-4.44,13.33-6.46,27.08-6.1,40.73h40.92C73.58,487.69,74.87,478.3,77.91,469.19
		z"/>
	<path class="st2" d="M447.46,216.18c-6.74,14.29-15.11,27.87-25.06,40.43c-11.43,14.43-24.93,27.51-40.37,38.77
		c-5.98,4.36-12.24,8.45-18.79,12.23l0,0l0,0c-0.98-1.69-1.92-3.4-2.85-5.11c-6.63-12.24-11.9-24.87-15.87-37.71
		c-2.67-8.62-4.74-17.34-6.25-26.11c-27.37,15.1-50.6,36.8-67.52,62.95c-11.38,17.59-19.91,37.19-24.95,58.16
		c-3.41,14.19-5.23,29.01-5.23,44.25c0,33.8,8.89,65.52,24.45,92.96h279.48H545V254.93C517.53,233.59,484.02,219.67,447.46,216.18z"
		/>
	<path class="st3" d="M439.51,23L439.51,23L439.51,23c-77.68,44.85-115.55,132.16-101.22,215.69c1.5,8.76,3.58,17.48,6.25,26.11
		c3.97,12.84,9.24,25.47,15.87,37.71c0.93,1.71,1.87,3.41,2.85,5.11l0,0l0,0c6.55-3.78,12.81-7.87,18.79-12.23
		c15.43-11.25,28.94-24.33,40.37-38.77c9.95-12.56,18.32-26.14,25.06-40.43C475.59,156.5,475,84.47,439.51,23z"/>
	<path class="st2" d="M591.77,500.15c0.62-1.04,1.23-2.09,1.83-3.15h-3.4L591.77,500.15z"/>
</g>
</svg>
